<svg width="24" height="24" viewBox="0 0 24 24" fill="none" xmlns="http://www.w3.org/2000/svg">
<g id="pie-chart">
<path id="Vector" d="M21.21 16.0011C20.5738 17.5056 19.5788 18.8313 18.3119 19.8624C17.045 20.8935 15.5448 21.5986 13.9424 21.9159C12.3401 22.2333 10.6844 22.1533 9.12015 21.6829C7.55587 21.2126 6.13062 20.3662 4.96902 19.2178C3.80741 18.0694 2.94481 16.6539 2.45663 15.0951C1.96845 13.5363 1.86956 11.8816 2.1686 10.2758C2.46763 8.66991 3.15549 7.16176 4.17204 5.88316C5.18859 4.60456 6.50288 3.59445 8 2.94113" stroke="#4970FE" stroke-width="1.5" stroke-linecap="round" stroke-linejoin="round"/>
<path id="Vector_2" d="M22 12.1111C22 10.7979 21.7413 9.49754 21.2388 8.28428C20.7363 7.07102 19.9997 5.96863 19.0711 5.04005C18.1425 4.11146 17.0401 3.37487 15.8268 2.87232C14.6136 2.36977 13.3132 2.11111 12 2.11111V12.1111H22Z" stroke="#34D396" stroke-width="1.5" stroke-linecap="round" stroke-linejoin="round"/>
</g>
</svg>
