<svg width="24" height="24" viewBox="0 0 24 24" fill="none" xmlns="http://www.w3.org/2000/svg">
<g id="users">
<path id="Vector" d="M17 21V19C17 17.9391 16.5786 16.9217 15.8284 16.1716C15.0783 15.4214 14.0609 15 13 15H5.00001C3.93915 15 2.92173 15.4214 2.17158 16.1716C1.42144 16.9217 1.00001 17.9391 1.00001 19V21" stroke="#4970FE" stroke-width="1.5" stroke-linecap="round" stroke-linejoin="round"/>
<path id="Vector_2" d="M8.99999 11C11.2091 11 13 9.20914 13 7C13 4.79086 11.2091 3 8.99999 3C6.79085 3 4.99999 4.79086 4.99999 7C4.99999 9.20914 6.79085 11 8.99999 11Z" stroke="#4970FE" stroke-width="1.5" stroke-linecap="round" stroke-linejoin="round"/>
<path id="Vector_3" d="M23 21V19C22.9993 18.1137 22.7043 17.2528 22.1614 16.5523C21.6184 15.8519 20.8581 15.3516 20 15.13" stroke="#34D396" stroke-width="1.5" stroke-linecap="round" stroke-linejoin="round"/>
<path id="Vector_4" d="M16 3.13C16.8604 3.35031 17.6231 3.85071 18.1677 4.55232C18.7123 5.25392 19.0079 6.11683 19.0079 7.00501C19.0079 7.89318 18.7123 8.75609 18.1677 9.45769C17.6231 10.1593 16.8604 10.6597 16 10.88" stroke="#34D396" stroke-width="1.5" stroke-linecap="round" stroke-linejoin="round"/>
</g>
</svg>
